<svg id="图层_1" data-name="图层 1" xmlns="http://www.w3.org/2000/svg" xmlns:xlink="http://www.w3.org/1999/xlink" viewBox="0 0 1000 1000"><defs><style>.cls-1,.cls-5,.cls-6{fill:#22fcff;}.cls-1,.cls-2,.cls-3,.cls-4,.cls-5,.cls-6{stroke:#000;stroke-miterlimit:10;}.cls-1,.cls-2,.cls-3,.cls-4,.cls-6{stroke-width:7px;}.cls-2{fill:url(#未命名的渐变_22);}.cls-3{fill:#fff;}.cls-5{stroke-width:4px;}.cls-6{stroke-linecap:round;}</style><radialGradient id="未命名的渐变_22" cx="493.81" cy="373" r="154.18" gradientUnits="userSpaceOnUse"><stop offset="0" stop-color="#fff"/><stop offset="0" stop-color="#f6f6f6"/><stop offset="0" stop-color="#c8c8c8"/><stop offset="0" stop-color="#9d9d9d"/><stop offset="0" stop-color="#777"/><stop offset="0" stop-color="#575757"/><stop offset="0" stop-color="#3b3b3b"/><stop offset="0" stop-color="#252525"/><stop offset="0" stop-color="#141414"/><stop offset="0" stop-color="#090909"/><stop offset="0" stop-color="#020202"/><stop offset="0"/><stop offset="0" stop-color="#e1ffff"/><stop offset="0.04" stop-color="#d4ffff"/><stop offset="0.22" stop-color="#9ffeff"/><stop offset="0.4" stop-color="#72fdff"/><stop offset="0.57" stop-color="#4ffdff"/><stop offset="0.73" stop-color="#36fcff"/><stop offset="0.88" stop-color="#27fcff"/><stop offset="1" stop-color="#22fcff"/></radialGradient></defs><title>avatar</title><rect width="1000" height="1000"/><ellipse class="cls-1" cx="504.31" cy="604.5" rx="95.43" ry="108"/><path class="cls-2" d="M491.53,212.58c-103,0-146.06,144.75-145.41,221,.65,75.81,110.2,100.42,147.36,99.76s148-24.75,148-104.33C641.5,348.21,599.19,212.58,491.53,212.58Z"/><circle class="cls-3" cx="582.49" cy="227.95" r="39.45"/><circle class="cls-3" cx="385.57" cy="239.69" r="39.45"/><circle class="cls-4" cx="399.59" cy="250.44" r="16.95"/><circle class="cls-4" cx="569.77" cy="239.36" r="16.95"/><ellipse class="cls-1" cx="460.8" cy="730.17" rx="42.8" ry="33.27" transform="translate(-401.94 764.15) rotate(-60)"/><ellipse class="cls-1" cx="570" cy="729.4" rx="32.39" ry="41.02" transform="matrix(0.94, -0.34, 0.34, 0.94, -213.96, 237.12)"/><path class="cls-1" d="M687.15,655.61c-29.56,5.16-71.47-14.66-93.61-44.26s-16.13-57.79,13.44-63,71.47,14.66,93.61,44.26S716.71,650.45,687.15,655.61Z"/><path class="cls-5" d="M742.88,647.28c7.56,5.58,9.39,11.46,4.08,13.14s-15.75-1.48-23.31-7.05-9.39-11.46-4.08-13.14S735.31,641.7,742.88,647.28Z"/><path class="cls-5" d="M721.06,658.9c5.42,6.68,3.88,13.23-3.44,14.61s-17.66-2.91-23.08-9.59-3.88-13.23,3.44-14.61S715.64,652.21,721.06,658.9Z"/><path class="cls-5" d="M684.3,667.47c-.29,9.39-7.47,16.95-16,16.89s-15.29-7.72-15-17.11,7.47-16.95,16-16.89S684.59,658.08,684.3,667.47Z"/><path class="cls-1" d="M407.5,550.64c28.28,4.71,32.63,34,9.73,65.5s-64.39,53.17-92.67,48.46-32.63-34-9.73-65.5S379.23,545.94,407.5,550.64Z"/><path class="cls-5" d="M390.91,661c5.09,10.23,1.86,19.36-7.22,20.4S363.13,674.93,358,664.7s-1.86-19.36,7.22-20.4S385.82,650.73,390.91,661Z"/><ellipse class="cls-5" cx="336.46" cy="672.67" rx="13.8" ry="19.33"/><path class="cls-5" d="M311.88,665.41c-6.8,9.34-19.4,15.74-28.14,14.28s-10.31-10.21-3.51-19.55,19.4-15.74,28.14-14.28S318.68,656.07,311.88,665.41Z"/><path class="cls-6" d="M543.5,453.5c-9,37-93,32-110-10"/></svg>