<?xml version="1.0" encoding="utf-8"?>
<!-- Generator: Adobe Illustrator 21.0.0, SVG Export Plug-In . SVG Version: 6.00 Build 0)  -->
<svg version="1.1" id="图层_1" xmlns="http://www.w3.org/2000/svg" xmlns:xlink="http://www.w3.org/1999/xlink" x="0px" y="0px"
	 viewBox="0 0 1000 1000" style="enable-background:new 0 0 1000 1000;" xml:space="preserve">
<style type="text/css">
	.st0{fill:#2BEFD3;stroke:#000000;stroke-width:7;stroke-miterlimit:10;}
	.st1{fill:#32C1ED;stroke:#000000;stroke-width:7;stroke-miterlimit:10;}
	.st2{fill:#FFFFFF;}
	.st3{fill:#FFFFFF;stroke:#000000;stroke-width:10;stroke-miterlimit:10;}
	.st4{fill:none;stroke:#000000;stroke-width:3;stroke-miterlimit:10;}
	.st5{fill:#2BEFD3;stroke:#000000;stroke-width:3;stroke-miterlimit:10;}
	.st6{fill:#F7F9F9;}
	.st7{fill:#22FCFF;stroke:#000000;stroke-width:7;stroke-miterlimit:10;}
	.st8{fill:url(#SVGID_1_);stroke:#000000;stroke-width:7;stroke-miterlimit:10;}
	.st9{fill:#FFFFFF;stroke:#000000;stroke-width:7;stroke-miterlimit:10;}
	.st10{stroke:#000000;stroke-width:7;stroke-miterlimit:10;}
	.st11{fill:#22FCFF;stroke:#000000;stroke-width:4;stroke-miterlimit:10;}
	.st12{fill:#22FCFF;stroke:#000000;stroke-width:7;stroke-linecap:round;stroke-miterlimit:10;}
</style>
<g>
	<ellipse class="st7" cx="504.3" cy="604.5" rx="95.4" ry="108"/>
	<radialGradient id="SVGID_1_" cx="493.8074" cy="372.995" r="154.1826" gradientUnits="userSpaceOnUse">
		<stop  offset="0" style="stop-color:#FFFFFF"/>
		<stop  offset="0" style="stop-color:#F6F6F6"/>
		<stop  offset="0" style="stop-color:#C8C8C8"/>
		<stop  offset="0" style="stop-color:#9D9D9D"/>
		<stop  offset="0" style="stop-color:#777777"/>
		<stop  offset="0" style="stop-color:#575757"/>
		<stop  offset="0" style="stop-color:#3B3B3B"/>
		<stop  offset="0" style="stop-color:#252525"/>
		<stop  offset="0" style="stop-color:#141414"/>
		<stop  offset="0" style="stop-color:#090909"/>
		<stop  offset="0" style="stop-color:#020202"/>
		<stop  offset="0" style="stop-color:#000000"/>
		<stop  offset="0" style="stop-color:#E1FFFF"/>
		<stop  offset="3.947955e-02" style="stop-color:#D4FFFF"/>
		<stop  offset="0.2227" style="stop-color:#9FFEFF"/>
		<stop  offset="0.4018" style="stop-color:#72FDFF"/>
		<stop  offset="0.5729" style="stop-color:#4FFDFF"/>
		<stop  offset="0.7338" style="stop-color:#36FCFF"/>
		<stop  offset="0.8804" style="stop-color:#27FCFF"/>
		<stop  offset="1" style="stop-color:#22FCFF"/>
	</radialGradient>
	<path class="st8" d="M491.5,212.6c-103,0-146.1,144.8-145.4,221c0.6,75.8,110.2,100.4,147.4,99.8s148-24.8,148-104.3
		C641.5,348.2,599.2,212.6,491.5,212.6z"/>
	<circle class="st9" cx="582.5" cy="227.9" r="39.4"/>
	<circle class="st9" cx="385.6" cy="239.7" r="39.4"/>
	<circle class="st10" cx="399.6" cy="250.4" r="17"/>
	<circle class="st10" cx="569.8" cy="239.4" r="17"/>
	<ellipse transform="matrix(0.5 -0.866 0.866 0.5 -401.941 764.1489)" class="st7" cx="460.8" cy="730.2" rx="42.8" ry="33.3"/>
	<ellipse transform="matrix(0.9405 -0.3398 0.3398 0.9405 -213.957 237.1228)" class="st7" cx="570" cy="729.4" rx="32.4" ry="41"/>
	<g>
		<path class="st7" d="M687.2,655.6c-29.6,5.2-71.5-14.7-93.6-44.3c-22.1-29.6-16.1-57.8,13.4-63s71.5,14.7,93.6,44.3
			S716.7,650.4,687.2,655.6z"/>
		<path class="st11" d="M742.9,647.3c7.6,5.6,9.4,11.5,4.1,13.1s-15.7-1.5-23.3-7.1c-7.6-5.6-9.4-11.5-4.1-13.1
			C724.9,638.5,735.3,641.7,742.9,647.3z"/>
		<path class="st11" d="M721.1,658.9c5.4,6.7,3.9,13.2-3.4,14.6s-17.7-2.9-23.1-9.6s-3.9-13.2,3.4-14.6S715.6,652.2,721.1,658.9z"/>
		<path class="st11" d="M684.3,667.5c-0.3,9.4-7.5,16.9-16,16.9c-8.6-0.1-15.3-7.7-15-17.1s7.5-16.9,16-16.9
			C677.9,650.4,684.6,658.1,684.3,667.5z"/>
	</g>
	<g>
		<path class="st7" d="M407.5,550.6c28.3,4.7,32.6,34,9.7,65.5s-64.4,53.2-92.7,48.5c-28.3-4.7-32.6-34-9.7-65.5
			S379.2,545.9,407.5,550.6z"/>
		<path class="st11" d="M390.9,661c5.1,10.2,1.9,19.4-7.2,20.4c-9.1,1-20.6-6.4-25.7-16.7c-5.1-10.2-1.9-19.4,7.2-20.4
			C374.3,643.3,385.8,650.7,390.9,661z"/>
		<ellipse class="st11" cx="336.5" cy="672.7" rx="13.8" ry="19.3"/>
		<path class="st11" d="M311.9,665.4c-6.8,9.3-19.4,15.7-28.1,14.3c-8.7-1.5-10.3-10.2-3.5-19.6s19.4-15.7,28.1-14.3
			C317.1,647.3,318.7,656.1,311.9,665.4z"/>
	</g>
	<path class="st12" d="M543.5,453.5c-9,37-93,32-110-10"/>
</g>
</svg>
